<svg width="15" height="15" viewBox="0 0 15 15" fill="none" xmlns="http://www.w3.org/2000/svg">
<path d="M12.4721 11.0658C12.4721 11.289 12.394 11.4788 12.2377 11.635L11.0993 12.7734C10.9431 12.9297 10.7533 13.0078 10.5301 13.0078C10.3069 13.0078 10.1172 12.9297 9.96093 12.7734L7.49999 10.3125L5.03905 12.7734C4.8828 12.9297 4.69307 13.0078 4.46986 13.0078C4.24664 13.0078 4.05691 12.9297 3.90066 12.7734L2.76227 11.635C2.60602 11.4788 2.52789 11.289 2.52789 11.0658C2.52789 10.8426 2.60602 10.6529 2.76227 10.4966L5.22321 8.0357L2.76227 5.57476C2.60602 5.41851 2.52789 5.22878 2.52789 5.00556C2.52789 4.78235 2.60602 4.59262 2.76227 4.43637L3.90066 3.29797C4.05691 3.14172 4.24664 3.0636 4.46986 3.0636C4.69307 3.0636 4.8828 3.14172 5.03905 3.29797L7.49999 5.75891L9.96093 3.29797C10.1172 3.14172 10.3069 3.0636 10.5301 3.0636C10.7533 3.0636 10.9431 3.14172 11.0993 3.29797L12.2377 4.43637C12.394 4.59262 12.4721 4.78235 12.4721 5.00556C12.4721 5.22878 12.394 5.41851 12.2377 5.57476L9.77678 8.0357L12.2377 10.4966C12.394 10.6529 12.4721 10.8426 12.4721 11.0658Z" fill="#BFC9E0"/>
</svg>
