<svg width="442" height="77" viewBox="0 0 442 77" fill="none" xmlns="http://www.w3.org/2000/svg">
<g clip-path="url(#clip0_2_25)">
<path opacity="0.4" d="M342.46 42.2538C341.62 42.262 340.798 42.726 340.084 43.5938C339.371 44.4617 338.795 45.6995 338.42 47.1695L275.258 0H275.176H0V1.77462H275.012L338.093 48.8199C337.985 49.5711 337.927 50.3466 337.921 51.1269C337.921 52.8818 338.187 54.5973 338.686 56.0565C339.185 57.5157 339.894 58.653 340.723 59.3246C341.553 59.9962 342.465 60.1719 343.346 59.8295C344.227 59.4871 345.036 58.6421 345.67 57.4011C346.305 56.1602 346.738 54.5792 346.913 52.8579C347.088 51.1367 346.998 49.3526 346.654 47.7313C346.311 46.1099 345.729 44.7242 344.982 43.7492C344.236 42.7742 343.358 42.2538 342.46 42.2538ZM342.46 56.4508C341.922 56.4508 341.395 56.1385 340.947 55.5535C340.499 54.9685 340.15 54.1371 339.944 53.1642C339.738 52.1914 339.684 51.121 339.789 50.0883C339.894 49.0555 340.154 48.1069 340.535 47.3623C340.915 46.6178 341.401 46.1107 341.929 45.9053C342.457 45.6999 343.005 45.8053 343.503 46.2083C344 46.6112 344.426 47.2936 344.725 48.1691C345.024 49.0446 345.184 50.0739 345.184 51.1269C345.184 52.5389 344.897 53.893 344.386 54.8914C343.876 55.8898 343.183 56.4508 342.46 56.4508Z" fill="#A69A2F"/>
</g>
<defs>
<clipPath id="clip0_2_25">
<rect width="347" height="60" fill="white"/>
</clipPath>
</defs>
</svg>
