<svg width="14" height="15" viewBox="0 0 14 15" fill="none" xmlns="http://www.w3.org/2000/svg">
<g clip-path="url(#clip0_2_135)">
<path d="M0.72853 14.3157C0.780952 14.3157 0.83119 14.3047 0.879244 14.2827C0.927297 14.2607 0.973167 14.2321 1.01685 14.1969L7.97589 7.88899C8.01957 7.845 8.05452 7.79441 8.08073 7.73723C8.10695 7.68004 8.12005 7.62066 8.12005 7.55908C8.12005 7.49749 8.10695 7.43811 8.08073 7.38092C8.05452 7.32374 8.01957 7.27315 7.97589 7.22916L1.01685 0.921245C0.973167 0.877257 0.925113 0.844266 0.872691 0.822272C0.820269 0.800277 0.763478 0.78928 0.702319 0.78928C0.64116 0.78928 0.584369 0.800277 0.531947 0.822272C0.479525 0.844266 0.43584 0.877257 0.400892 0.921245C0.357207 0.956436 0.324443 1.00042 0.3026 1.05321C0.280758 1.106 0.269836 1.16318 0.269836 1.22476C0.269836 1.28635 0.280758 1.34353 0.3026 1.39632C0.324443 1.4491 0.357207 1.49309 0.400892 1.52828L7.01919 7.55908L0.427103 13.5503C0.383418 13.5855 0.350654 13.6317 0.328811 13.6888C0.306969 13.746 0.296047 13.801 0.296047 13.8538C0.296047 13.9154 0.306969 13.9726 0.328811 14.0254C0.350654 14.0781 0.383418 14.1265 0.427103 14.1705C0.462051 14.2145 0.505736 14.2497 0.558158 14.2761C0.61058 14.3025 0.667371 14.3157 0.72853 14.3157Z" fill="#233470"/>
</g>
<defs>
<clipPath id="clip0_2_135">
<rect width="13.407" height="14" fill="white" transform="matrix(1 0 0 -1 0.269836 14.5591)"/>
</clipPath>
</defs>
</svg>
